<svg id="svg" version="1.1" width="400" height="402.93809024134316" viewBox="0 0 400 402.93809024134316" xmlns="http://www.w3.org/2000/svg" xmlns:xlink="http://www.w3.org/1999/xlink"><g id="svgg"><path id="path0" d="M182.452 155.700 C 182.716 156.195,184.446 159.091,186.298 162.135 C 188.149 165.179,189.545 167.788,189.399 167.934 C 189.254 168.080,188.877 167.839,188.563 167.399 C 184.302 161.438,178.978 155.600,177.804 155.600 C 175.233 155.600,174.281 154.322,195.897 179.882 C 200.652 185.505,200.088 185.448,204.000 180.695 C 205.650 178.690,208.260 175.580,209.800 173.784 C 216.113 166.420,222.620 158.667,222.920 158.150 C 223.184 157.696,222.404 157.600,218.445 157.600 L 213.651 157.600 211.976 159.988 C 210.565 162.000,210.187 162.314,209.573 161.986 C 208.318 161.314,208.290 160.801,209.421 159.169 C 210.775 157.216,210.869 157.301,206.556 156.609 C 196.936 155.065,194.263 154.800,188.315 154.800 L 181.972 154.800 182.452 155.700 M208.587 163.413 C 212.596 167.423,208.223 173.963,202.889 171.934 C 198.310 170.191,198.591 162.996,203.276 162.038 C 205.519 161.579,207.184 162.011,208.587 163.413 M201.811 173.218 C 202.076 173.647,201.561 174.523,199.830 176.584 C 198.337 178.363,198.067 177.443,199.359 174.976 C 200.449 172.894,201.254 172.317,201.811 173.218 M169.320 201.545 C 160.813 204.484,156.700 214.433,160.693 222.415 L 161.986 225.000 158.544 232.200 C 154.918 239.784,147.674 256.303,146.803 258.972 C 146.324 260.441,146.350 260.592,147.201 261.281 C 148.502 262.335,148.856 262.164,157.956 256.066 C 167.576 249.619,166.921 249.946,166.582 251.755 C 165.695 256.483,169.532 257.258,172.982 253.048 C 174.019 251.783,174.800 251.200,175.458 251.200 C 175.987 251.200,177.444 250.840,178.696 250.400 C 179.948 249.960,181.035 249.600,181.111 249.600 C 181.187 249.600,181.133 250.372,180.992 251.315 C 180.348 255.607,183.200 255.828,187.040 251.784 C 189.754 248.927,190.000 248.912,190.000 251.608 C 190.000 256.354,193.500 256.827,197.583 252.632 C 199.444 250.720,200.000 250.426,200.000 251.351 C 200.000 253.908,201.702 253.164,208.125 247.797 C 213.906 242.967,214.088 242.919,212.617 246.594 C 209.729 253.812,211.959 256.534,217.824 252.946 C 222.668 249.983,222.155 250.155,223.158 251.158 C 224.282 252.282,225.869 252.042,228.300 250.379 C 230.324 248.995,230.435 249.324,229.142 252.870 C 228.296 255.191,227.765 255.775,223.206 259.400 C 214.256 266.516,209.394 276.400,214.843 276.400 C 218.411 276.400,222.456 271.493,227.637 260.878 L 230.040 255.956 234.082 252.978 C 238.873 249.448,238.800 249.464,238.800 251.971 C 238.800 255.568,241.782 256.551,246.181 254.402 C 248.106 253.462,254.000 248.922,254.000 248.380 C 254.000 247.650,252.898 248.009,251.564 249.174 C 247.283 252.912,241.812 254.903,240.677 253.137 C 239.816 251.798,240.977 249.402,242.774 248.809 C 246.157 247.692,248.201 244.929,246.616 243.614 C 245.543 242.722,243.564 243.566,241.369 245.850 C 240.233 247.032,239.131 248.000,238.920 248.000 C 238.709 248.000,236.989 249.080,235.097 250.400 C 231.383 252.992,230.991 253.168,231.326 252.100 C 233.013 246.728,232.881 244.315,230.860 243.547 C 229.606 243.070,226.026 244.778,224.514 246.576 C 222.220 249.301,215.602 253.371,213.865 253.123 C 212.572 252.939,212.826 250.539,214.612 246.079 C 216.466 241.446,215.634 239.665,212.761 242.114 C 212.190 242.601,210.480 244.021,208.961 245.269 C 207.443 246.517,205.570 248.092,204.800 248.768 C 204.030 249.445,203.175 249.999,202.900 249.999 C 202.278 250.000,202.254 250.186,203.200 247.696 C 204.195 245.079,204.205 244.400,203.249 244.400 C 202.339 244.400,201.753 245.052,201.399 246.460 C 201.127 247.545,196.315 252.365,194.231 253.640 C 191.730 255.170,190.969 253.151,192.222 248.314 C 193.551 243.188,192.380 242.443,189.529 246.600 C 186.147 251.530,182.958 254.426,182.222 253.235 C 181.927 252.759,183.114 247.126,183.614 246.626 C 184.203 246.037,184.074 245.200,183.394 245.200 C 183.060 245.200,182.501 245.801,182.150 246.535 C 181.607 247.674,181.107 248.001,178.756 248.758 C 175.629 249.766,175.043 249.626,175.408 247.962 C 176.043 245.073,174.481 243.127,172.400 244.215 C 171.850 244.502,171.093 244.833,170.717 244.950 C 170.341 245.066,169.590 245.865,169.047 246.725 C 168.498 247.595,167.203 248.783,166.130 249.402 C 165.069 250.014,160.830 252.739,156.711 255.457 C 148.865 260.636,148.173 260.982,148.615 259.500 C 149.238 257.409,156.213 241.547,160.763 231.869 C 161.884 229.487,162.800 227.383,162.800 227.193 C 162.800 226.377,163.617 226.466,164.731 227.403 C 173.346 234.652,187.375 229.414,189.189 218.270 C 191.030 206.958,180.152 197.802,169.320 201.545 M102.800 215.800 L 102.800 230.000 114.200 230.000 L 125.600 230.000 125.600 226.600 L 125.600 223.200 118.000 223.200 L 110.400 223.200 110.400 221.000 L 110.400 218.800 117.600 218.800 L 124.800 218.800 124.800 215.600 L 124.800 212.400 117.600 212.400 L 110.400 212.400 110.400 210.200 L 110.400 208.000 118.000 208.000 L 125.600 208.000 125.600 204.800 L 125.600 201.600 114.200 201.600 L 102.800 201.600 102.800 215.800 M133.295 215.700 L 133.400 229.800 137.100 229.915 L 140.800 230.030 140.800 225.415 C 140.800 220.202,140.935 220.041,143.073 222.696 C 143.913 223.739,144.899 224.926,145.265 225.334 C 145.631 225.742,146.621 226.951,147.465 228.022 L 149.000 229.968 153.549 229.984 C 157.129 229.997,158.016 229.893,157.713 229.500 C 157.501 229.225,155.113 226.030,152.406 222.400 C 149.700 218.770,147.320 215.588,147.118 215.330 C 146.867 215.008,148.306 213.069,151.676 209.186 C 154.384 206.065,156.930 203.082,157.333 202.556 L 158.067 201.600 153.441 201.600 L 148.816 201.600 145.109 206.163 C 140.728 211.557,140.800 211.560,140.800 205.976 L 140.800 201.600 136.995 201.600 L 133.190 201.600 133.295 215.700 M195.200 215.815 L 195.200 230.030 198.900 229.915 L 202.600 229.800 202.709 222.500 C 202.769 218.485,202.949 215.207,203.109 215.215 C 203.269 215.224,205.548 218.554,208.173 222.615 L 212.947 230.000 216.673 230.000 L 220.400 230.000 220.400 215.800 L 220.400 201.600 216.609 201.600 L 212.818 201.600 212.709 209.090 L 212.600 216.581 208.079 209.669 C 205.593 205.867,203.458 202.496,203.336 202.178 C 203.163 201.728,202.240 201.600,199.157 201.600 L 195.200 201.600 195.200 215.815 M227.457 204.059 C 227.129 207.197,227.129 226.516,227.457 228.500 L 227.705 230.000 238.852 230.000 L 250.000 230.000 250.000 226.609 L 250.000 223.217 242.300 223.109 L 234.600 223.000 234.469 221.852 C 234.397 221.220,234.445 220.275,234.576 219.752 L 234.815 218.800 242.008 218.800 L 249.200 218.800 249.200 215.609 L 249.200 212.418 241.900 212.309 L 234.600 212.200 234.600 210.200 L 234.600 208.200 242.300 208.091 L 250.000 207.983 250.000 204.791 L 250.000 201.600 238.857 201.600 L 227.714 201.600 227.457 204.059 M257.695 215.685 L 257.800 229.800 261.491 229.915 L 265.182 230.030 265.291 222.515 L 265.400 215.000 270.355 222.500 L 275.311 230.000 279.055 230.000 L 282.800 230.000 282.800 215.800 L 282.800 201.600 279.000 201.600 L 275.200 201.600 275.200 209.080 C 275.200 214.395,275.076 216.436,274.772 216.132 C 274.536 215.896,272.306 212.575,269.815 208.752 L 265.287 201.800 261.438 201.685 L 257.590 201.571 257.695 215.685 M290.000 215.800 L 290.000 230.000 293.800 230.000 L 297.600 230.000 297.600 215.800 L 297.600 201.600 293.800 201.600 L 290.000 201.600 290.000 215.800 M178.548 209.103 C 184.772 213.416,181.743 223.631,174.251 223.591 C 167.559 223.556,164.188 215.460,168.748 210.376 C 171.398 207.422,175.377 206.905,178.548 209.103 M231.200 245.317 C 231.200 246.520,226.392 250.400,224.901 250.400 C 224.011 250.400,224.000 250.359,224.584 249.232 C 225.923 246.643,231.200 243.520,231.200 245.317 M246.000 245.186 C 246.000 245.740,243.137 247.608,242.700 247.338 C 242.171 247.012,244.414 244.800,245.275 244.800 C 245.674 244.800,246.000 244.974,246.000 245.186 M174.400 246.720 C 174.400 248.143,173.855 249.200,173.120 249.200 C 172.613 249.200,172.749 246.211,173.280 245.680 C 174.098 244.862,174.400 245.141,174.400 246.720 M172.091 249.529 L 172.900 251.259 171.556 252.645 C 169.206 255.070,167.396 254.992,168.071 252.497 C 168.627 250.444,170.905 246.495,171.115 247.222 C 171.207 247.540,171.646 248.578,172.091 249.529 M225.389 261.786 C 222.576 268.148,217.114 275.200,215.001 275.200 C 211.922 275.200,215.705 268.512,222.127 262.603 C 226.072 258.973,226.703 258.815,225.389 261.786 " stroke="none" fill="#f5f5f5" fill-rule="evenodd"></path><path id="path1" d="M231.938 126.685 C 231.601 127.078,229.272 130.458,226.763 134.196 C 224.253 137.933,221.983 141.223,221.717 141.507 C 221.080 142.187,221.496 143.200,222.411 143.200 C 223.474 143.200,234.140 128.025,233.912 126.838 C 233.738 125.934,232.654 125.850,231.938 126.685 M164.480 146.080 C 163.377 147.183,163.972 148.692,166.949 152.338 C 170.923 157.204,178.296 165.850,179.900 167.524 C 180.615 168.270,181.200 168.998,181.200 169.143 C 181.200 169.288,182.145 170.498,183.300 171.832 C 184.455 173.167,188.052 177.410,191.294 181.262 C 199.710 191.263,201.010 191.564,206.421 184.766 C 208.884 181.672,217.444 171.456,221.809 166.400 C 226.700 160.735,235.276 150.433,236.118 149.211 C 237.022 147.900,236.982 146.526,236.026 146.014 C 234.841 145.380,165.116 145.444,164.480 146.080 M234.400 147.925 C 234.400 148.103,234.079 148.598,233.687 149.025 C 232.860 149.923,227.575 156.188,222.066 162.800 C 219.957 165.330,215.253 170.910,211.613 175.200 C 207.972 179.490,204.303 183.848,203.461 184.884 C 200.950 187.973,199.357 187.838,196.600 184.302 C 195.720 183.174,194.711 181.950,194.359 181.584 C 193.793 180.996,186.874 172.770,179.200 163.561 C 177.770 161.846,174.305 157.736,171.500 154.429 C 168.695 151.122,166.400 148.233,166.400 148.008 C 166.400 147.734,177.533 147.600,200.400 147.600 C 219.100 147.600,234.400 147.746,234.400 147.925 M214.836 151.996 C 212.907 154.744,212.925 156.452,214.863 154.713 C 215.839 153.837,218.400 150.300,218.400 149.828 C 218.400 148.626,216.306 149.900,214.836 151.996 M87.698 212.917 L 87.800 253.000 105.600 253.000 L 123.400 253.000 123.516 249.466 C 123.594 247.095,123.495 246.017,123.216 246.190 C 122.987 246.332,122.800 246.257,122.800 246.024 C 122.800 245.734,118.387 245.600,108.800 245.600 L 94.800 245.600 94.800 212.800 L 94.800 180.000 96.100 179.996 C 108.548 179.956,139.109 179.662,139.429 179.579 C 140.015 179.426,140.111 174.016,139.539 173.327 C 139.168 172.879,134.563 172.788,113.342 172.809 L 87.596 172.834 87.698 212.917 M260.800 175.986 C 260.800 180.362,258.958 180.031,283.098 180.000 C 294.484 179.985,304.205 179.979,304.700 179.986 L 305.600 180.000 305.600 212.795 L 305.600 245.590 291.500 245.695 L 277.400 245.800 277.285 249.500 L 277.170 253.200 294.571 253.200 C 311.365 253.200,311.986 253.173,312.386 252.426 C 312.663 251.908,312.800 238.639,312.800 212.226 L 312.800 172.800 286.800 172.800 L 260.800 172.800 260.800 175.986 " stroke="none" fill="#58b64c" fill-rule="evenodd"></path><path id="path2" d="M231.729 126.500 C 231.284 126.995,230.784 127.670,230.619 128.000 C 230.454 128.330,230.800 128.015,231.388 127.300 C 233.027 125.309,234.674 125.879,233.609 128.069 C 233.177 128.957,233.185 128.964,233.778 128.224 C 235.331 126.285,233.391 124.654,231.729 126.500 M227.200 133.000 C 226.087 134.650,225.266 136.000,225.376 136.000 C 225.486 136.000,226.487 134.650,227.600 133.000 C 228.713 131.350,229.534 130.000,229.424 130.000 C 229.314 130.000,228.313 131.350,227.200 133.000 M230.400 132.800 C 229.930 133.460,229.636 134.000,229.746 134.000 C 229.856 134.000,230.330 133.460,230.800 132.800 C 231.270 132.140,231.564 131.600,231.454 131.600 C 231.344 131.600,230.870 132.140,230.400 132.800 M225.418 139.974 C 223.722 142.381,222.917 143.189,222.091 143.314 C 221.013 143.478,221.014 143.481,222.200 143.524 C 223.273 143.563,223.645 143.209,225.717 140.184 C 226.991 138.323,227.948 136.800,227.844 136.800 C 227.740 136.800,226.648 138.228,225.418 139.974 M164.300 145.757 C 163.593 146.294,163.318 148.579,163.916 148.948 C 164.090 149.056,164.165 148.562,164.082 147.850 C 163.808 145.504,162.132 145.613,200.238 145.500 L 235.400 145.396 200.200 145.311 C 171.449 145.241,164.872 145.323,164.300 145.757 M167.905 147.883 C 168.402 147.979,169.122 147.975,169.505 147.875 C 169.887 147.775,169.480 147.696,168.600 147.701 C 167.720 147.705,167.407 147.787,167.905 147.883 M183.129 147.900 C 190.240 147.961,201.760 147.961,208.729 147.900 C 215.698 147.838,209.880 147.788,195.800 147.788 C 181.720 147.788,176.018 147.839,183.129 147.900 M224.500 147.897 C 226.205 147.972,228.995 147.972,230.700 147.897 C 232.405 147.822,231.010 147.761,227.600 147.761 C 224.190 147.761,222.795 147.822,224.500 147.897 M166.400 148.264 C 166.400 148.482,166.895 149.097,167.500 149.630 L 168.600 150.600 167.600 149.400 C 167.050 148.740,166.555 148.125,166.500 148.033 C 166.445 147.942,166.400 148.045,166.400 148.264 M236.400 148.659 C 236.400 148.875,235.288 150.390,233.928 152.026 C 232.569 153.662,231.947 154.556,232.547 154.013 C 234.155 152.556,236.953 148.820,236.656 148.523 C 236.515 148.382,236.400 148.443,236.400 148.659 M215.473 150.500 C 214.136 152.297,213.072 154.000,213.288 154.000 C 213.386 154.000,214.149 153.010,214.982 151.800 C 216.102 150.175,216.746 149.600,217.449 149.600 C 218.659 149.600,218.648 149.696,217.181 151.828 C 215.632 154.078,215.926 154.150,217.565 151.921 C 219.120 149.807,219.133 149.200,217.620 149.200 C 216.755 149.200,216.183 149.546,215.473 150.500 M168.400 150.925 C 168.400 150.994,168.985 151.579,169.700 152.225 L 171.000 153.400 169.825 152.100 C 168.730 150.888,168.400 150.616,168.400 150.925 M173.182 156.547 C 174.523 158.168,176.012 159.833,176.491 160.247 C 176.971 160.661,175.964 159.335,174.254 157.300 C 172.545 155.265,171.055 153.600,170.945 153.600 C 170.835 153.600,171.842 154.926,173.182 156.547 M175.731 155.835 C 175.578 156.235,175.911 156.864,176.633 157.535 C 177.763 158.586,177.766 158.587,176.889 157.574 C 175.761 156.273,175.765 155.701,176.900 155.482 L 177.800 155.309 176.887 155.254 C 176.384 155.224,175.866 155.484,175.731 155.835 M225.968 157.700 C 224.784 159.075,224.132 159.948,224.520 159.641 C 225.334 158.994,228.562 155.200,228.297 155.200 C 228.200 155.200,227.151 156.325,225.968 157.700 M230.175 156.500 L 229.000 157.800 230.300 156.625 C 231.015 155.979,231.600 155.394,231.600 155.325 C 231.600 155.016,231.270 155.288,230.175 156.500 M221.900 157.489 C 223.396 157.675,223.459 157.830,222.500 158.969 C 221.801 159.799,221.801 159.799,222.700 159.038 C 224.082 157.868,223.852 157.189,222.100 157.264 C 220.623 157.327,220.620 157.331,221.900 157.489 M175.228 162.500 C 177.037 164.645,178.598 166.400,178.696 166.400 C 178.937 166.400,175.887 162.775,173.705 160.468 C 172.733 159.440,173.418 160.355,175.228 162.500 M222.942 161.300 C 220.886 163.621,218.244 166.926,218.630 166.696 C 219.117 166.406,224.141 160.400,223.897 160.400 C 223.811 160.400,223.381 160.805,222.942 161.300 M208.434 163.847 C 208.965 164.533,209.480 165.023,209.579 164.935 C 209.677 164.847,209.243 164.286,208.613 163.688 L 207.469 162.600 208.434 163.847 M181.199 165.999 C 182.119 167.098,183.081 168.126,183.336 168.283 C 183.591 168.439,182.923 167.540,181.851 166.284 C 180.780 165.028,179.818 164.000,179.714 164.000 C 179.610 164.000,180.279 164.899,181.199 165.999 M202.200 164.800 C 201.870 165.334,202.314 166.000,203.000 166.000 C 203.799 166.000,204.168 165.208,203.621 164.665 C 203.264 164.310,203.221 164.379,203.440 164.955 C 203.651 165.507,203.577 165.654,203.164 165.505 C 202.854 165.392,202.645 165.097,202.700 164.850 C 202.824 164.292,202.532 164.263,202.200 164.800 M216.834 165.753 L 215.869 167.000 217.013 165.912 C 217.643 165.314,218.077 164.753,217.979 164.665 C 217.880 164.577,217.365 165.067,216.834 165.753 M221.775 166.500 L 220.600 167.800 221.900 166.625 C 222.615 165.979,223.200 165.394,223.200 165.325 C 223.200 165.016,222.870 165.288,221.775 166.500 M209.701 167.000 C 209.705 167.880,209.787 168.193,209.883 167.695 C 209.979 167.198,209.975 166.478,209.875 166.095 C 209.775 165.713,209.696 166.120,209.701 167.000 M180.374 168.700 C 181.337 169.855,182.202 170.800,182.296 170.800 C 182.568 170.800,180.104 167.782,179.326 167.162 C 178.939 166.853,179.410 167.545,180.374 168.700 M216.954 168.500 C 214.886 170.733,211.511 174.800,211.725 174.800 C 211.837 174.800,213.392 173.090,215.179 171.000 C 218.387 167.250,219.295 165.971,216.954 168.500 M219.355 169.300 C 218.694 170.015,216.824 172.220,215.199 174.200 C 213.574 176.180,211.796 178.295,211.248 178.900 C 210.699 179.505,210.361 180.000,210.497 180.000 C 210.633 180.000,213.013 177.300,215.787 174.000 C 220.598 168.275,221.955 166.487,219.355 169.300 M184.549 173.716 C 185.620 174.972,186.582 176.000,186.686 176.000 C 186.954 176.000,183.623 172.061,183.064 171.717 C 182.809 171.561,183.477 172.460,184.549 173.716 M87.462 172.700 C 87.360 172.865,98.992 172.952,113.311 172.894 C 133.953 172.810,139.412 172.893,139.667 173.294 C 139.899 173.660,139.989 173.606,139.994 173.100 C 140.000 172.359,87.918 171.962,87.462 172.700 M260.400 176.200 C 260.400 179.888,260.427 179.999,261.300 179.954 C 261.977 179.919,262.027 179.862,261.500 179.724 C 260.903 179.568,260.800 179.044,260.800 176.171 L 260.800 172.800 286.800 172.800 L 312.800 172.800 312.800 212.800 C 312.800 240.686,312.672 252.800,312.376 252.800 C 312.143 252.800,312.066 252.983,312.204 253.207 C 313.091 254.642,313.200 250.225,313.200 212.776 L 313.200 172.400 286.800 172.400 L 260.400 172.400 260.400 176.200 M190.624 177.271 C 192.371 179.368,193.869 181.025,193.954 180.954 C 194.133 180.804,188.510 174.116,187.875 173.723 C 187.641 173.578,188.878 175.175,190.624 177.271 M210.171 176.500 C 207.858 179.034,207.063 180.000,207.291 180.000 C 207.417 180.000,208.456 178.920,209.600 177.600 C 211.786 175.077,212.203 174.273,210.171 176.500 M198.775 176.446 C 198.423 177.105,198.434 177.255,198.826 177.125 C 199.103 177.032,199.375 176.651,199.430 176.278 C 199.564 175.362,199.322 175.425,198.775 176.446 M192.000 176.125 C 192.000 176.194,192.585 176.779,193.300 177.425 L 194.600 178.600 193.425 177.300 C 192.330 176.088,192.000 175.816,192.000 176.125 M186.800 176.525 C 186.800 176.594,187.385 177.179,188.100 177.825 L 189.400 179.000 188.225 177.700 C 187.130 176.488,186.800 176.216,186.800 176.525 M205.978 178.700 L 204.600 180.200 206.100 178.822 C 207.496 177.538,207.784 177.200,207.478 177.200 C 207.412 177.200,206.737 177.875,205.978 178.700 M138.100 179.876 C 138.485 179.976,139.115 179.976,139.500 179.876 C 139.885 179.775,139.570 179.693,138.800 179.693 C 138.030 179.693,137.715 179.775,138.100 179.876 M192.015 182.586 C 193.373 184.229,194.775 185.804,195.129 186.086 C 195.483 186.369,194.455 185.025,192.844 183.100 C 191.232 181.175,189.831 179.600,189.729 179.600 C 189.628 179.600,190.656 180.944,192.015 182.586 M94.991 212.800 C 94.991 230.950,95.040 238.375,95.100 229.300 C 95.160 220.225,95.160 205.375,95.100 196.300 C 95.040 187.225,94.991 194.650,94.991 212.800 M305.105 212.800 C 305.047 230.840,305.135 245.600,305.300 245.600 C 305.465 245.600,305.600 230.840,305.600 212.800 C 305.600 194.760,305.512 180.000,305.405 180.000 C 305.297 180.000,305.162 194.760,305.105 212.800 M205.775 181.700 L 204.600 183.000 205.900 181.825 C 206.615 181.179,207.200 180.594,207.200 180.525 C 207.200 180.216,206.870 180.488,205.775 181.700 M208.966 181.700 C 207.131 183.703,206.152 184.966,206.664 184.668 C 207.173 184.371,210.571 180.400,210.316 180.400 C 210.228 180.400,209.621 180.985,208.966 181.700 M198.962 184.300 C 199.381 184.795,200.011 185.186,200.362 185.168 C 200.904 185.142,200.909 185.103,200.400 184.916 C 200.070 184.795,199.440 184.404,199.000 184.048 C 198.207 183.406,198.206 183.408,198.962 184.300 M202.399 185.802 C 202.124 186.132,201.337 186.566,200.650 186.766 C 199.691 187.044,199.604 187.136,200.278 187.164 C 200.760 187.184,201.660 186.756,202.278 186.213 C 202.895 185.670,203.287 185.220,203.149 185.213 C 203.011 185.206,202.673 185.471,202.399 185.802 M196.887 188.100 C 197.506 188.705,198.235 189.195,198.506 189.188 C 198.778 189.181,198.640 188.977,198.200 188.733 C 197.760 188.490,197.031 188.000,196.581 187.645 C 196.130 187.290,196.268 187.495,196.887 188.100 M199.700 189.476 C 200.085 189.576,200.715 189.576,201.100 189.476 C 201.485 189.375,201.170 189.293,200.400 189.293 C 199.630 189.293,199.315 189.375,199.700 189.476 M108.724 201.099 C 111.873 201.167,116.913 201.167,119.924 201.099 C 122.936 201.031,120.360 200.976,114.200 200.976 C 108.040 200.976,105.576 201.032,108.724 201.099 M134.600 201.054 C 137.428 201.350,141.112 201.377,140.939 201.100 C 140.837 200.935,139.098 200.829,137.076 200.864 C 135.054 200.899,133.940 200.985,134.600 201.054 M154.500 201.098 C 158.754 201.241,158.812 201.273,157.511 202.774 L 156.623 203.800 157.761 202.742 C 159.486 201.137,158.870 200.789,154.476 200.884 L 150.600 200.967 154.500 201.098 M199.300 201.087 C 199.905 201.178,200.895 201.178,201.500 201.087 C 202.105 200.995,201.610 200.920,200.400 200.920 C 199.190 200.920,198.695 200.995,199.300 201.087 M215.700 201.091 C 216.525 201.178,217.875 201.178,218.700 201.091 C 219.525 201.005,218.850 200.934,217.200 200.934 C 215.550 200.934,214.875 201.005,215.700 201.091 M233.124 201.099 C 236.273 201.167,241.313 201.167,244.324 201.099 C 247.336 201.031,244.760 200.976,238.600 200.976 C 232.440 200.976,229.976 201.032,233.124 201.099 M258.900 201.087 C 259.505 201.178,260.495 201.178,261.100 201.087 C 261.705 200.995,261.210 200.920,260.000 200.920 C 258.790 200.920,258.295 200.995,258.900 201.087 M277.312 201.095 C 278.364 201.177,279.984 201.176,280.912 201.092 C 281.840 201.008,280.980 200.941,279.000 200.942 C 277.020 200.943,276.260 201.012,277.312 201.095 M292.505 201.087 C 293.114 201.179,294.014 201.177,294.505 201.082 C 294.997 200.987,294.500 200.911,293.400 200.914 C 292.300 200.917,291.897 200.995,292.505 201.087 M132.992 215.700 L 133.000 230.200 137.000 230.221 L 141.000 230.242 137.105 230.107 L 133.210 229.972 133.097 215.586 L 132.985 201.200 132.992 215.700 M194.992 215.700 L 195.000 230.200 199.000 230.200 L 203.000 230.200 203.200 222.899 C 203.310 218.884,203.265 215.599,203.100 215.599 C 202.935 215.600,202.800 218.840,202.800 222.800 L 202.800 230.000 199.005 230.000 L 195.210 230.000 195.097 215.600 L 194.985 201.200 194.992 215.700 M226.992 215.700 L 227.000 230.200 238.600 230.209 L 250.200 230.218 238.705 230.103 L 227.210 229.988 227.097 215.594 L 226.985 201.200 226.992 215.700 M282.895 215.486 L 282.800 229.971 278.900 230.102 L 275.000 230.233 278.913 230.316 C 283.728 230.419,283.232 232.210,283.100 215.198 L 282.989 201.000 282.895 215.486 M289.792 215.700 L 289.800 230.200 293.800 230.221 L 297.800 230.242 293.905 230.107 L 290.010 229.972 289.897 215.586 L 289.785 201.200 289.792 215.700 M212.318 208.639 C 212.253 212.510,212.335 215.761,212.500 215.862 C 212.665 215.964,212.800 212.797,212.800 208.824 C 212.800 204.851,212.718 201.600,212.618 201.600 C 212.518 201.600,212.383 204.767,212.318 208.639 M185.000 204.800 C 185.859 205.680,186.652 206.400,186.762 206.400 C 186.872 206.400,186.259 205.680,185.400 204.800 C 184.541 203.920,183.748 203.200,183.638 203.200 C 183.528 203.200,184.141 203.920,185.000 204.800 M267.149 204.200 C 267.365 204.640,267.834 205.360,268.193 205.800 L 268.844 206.600 268.451 205.800 C 268.235 205.360,267.766 204.640,267.407 204.200 L 266.756 203.400 267.149 204.200 M114.321 208.299 C 116.588 208.370,120.188 208.370,122.321 208.298 C 124.455 208.226,122.600 208.168,118.200 208.168 C 113.800 208.168,112.055 208.227,114.321 208.299 M234.961 208.558 C 234.843 208.865,234.818 209.810,234.906 210.658 C 235.058 212.130,235.069 212.114,235.133 210.309 L 235.200 208.417 242.900 208.299 L 250.600 208.182 242.887 208.091 C 236.598 208.017,235.135 208.103,234.961 208.558 M249.280 215.700 L 249.200 219.200 242.000 219.200 L 234.800 219.200 234.864 220.700 C 234.927 222.177,234.931 222.180,235.089 220.900 L 235.251 219.600 242.238 219.600 C 250.271 219.600,249.697 219.935,249.498 215.365 L 249.361 212.200 249.280 215.700 M189.724 215.800 C 189.726 217.120,189.801 217.612,189.890 216.893 C 189.979 216.174,189.977 215.094,189.886 214.493 C 189.795 213.892,189.722 214.480,189.724 215.800 M166.909 215.600 C 166.909 216.590,166.987 216.995,167.082 216.500 C 167.178 216.005,167.178 215.195,167.082 214.700 C 166.987 214.205,166.909 214.610,166.909 215.600 M265.334 217.900 C 265.337 220.029,265.349 220.058,265.490 218.290 C 265.598 216.941,265.783 216.464,266.121 216.666 C 266.407 216.838,266.378 216.680,266.051 216.277 C 265.307 215.360,265.331 215.307,265.334 217.900 M117.600 219.200 L 110.200 219.427 117.476 219.514 C 121.991 219.567,124.847 219.448,125.000 219.200 C 125.136 218.980,125.192 218.839,125.124 218.886 C 125.056 218.934,121.670 219.075,117.600 219.200 M265.351 225.200 C 265.351 227.730,265.416 228.765,265.496 227.500 C 265.575 226.235,265.575 224.165,265.496 222.900 C 265.416 221.635,265.351 222.670,265.351 225.200 M234.799 222.900 C 234.800 223.065,237.185 223.168,240.100 223.128 C 245.430 223.055,244.790 222.906,238.299 222.707 C 236.374 222.648,234.799 222.735,234.799 222.900 M111.105 223.083 C 111.602 223.179,112.322 223.175,112.705 223.075 C 113.087 222.975,112.680 222.896,111.800 222.901 C 110.920 222.905,110.607 222.987,111.105 223.083 M122.307 223.090 C 123.026 223.179,124.106 223.177,124.707 223.086 C 125.308 222.995,124.720 222.922,123.400 222.924 C 122.080 222.926,121.588 223.001,122.307 223.090 M246.100 223.076 C 246.485 223.176,247.115 223.176,247.500 223.076 C 247.885 222.975,247.570 222.893,246.800 222.893 C 246.030 222.893,245.715 222.975,246.100 223.076 M216.600 230.000 L 212.600 230.245 216.700 230.323 C 219.218 230.370,220.800 230.246,220.800 230.000 C 220.800 229.780,220.755 229.635,220.700 229.677 C 220.645 229.720,218.800 229.865,216.600 230.000 M257.554 230.116 C 257.729 230.290,259.566 230.378,261.636 230.313 L 265.400 230.195 261.318 229.997 C 259.073 229.889,257.379 229.942,257.554 230.116 M108.500 230.299 C 111.745 230.366,117.055 230.366,120.300 230.299 C 123.545 230.232,120.890 230.177,114.400 230.177 C 107.910 230.177,105.255 230.232,108.500 230.299 M150.900 230.296 C 152.165 230.375,154.235 230.375,155.500 230.296 C 156.765 230.216,155.730 230.151,153.200 230.151 C 150.670 230.151,149.635 230.216,150.900 230.296 M173.107 231.090 C 173.826 231.179,174.906 231.177,175.507 231.086 C 176.108 230.995,175.520 230.922,174.200 230.924 C 172.880 230.926,172.388 231.001,173.107 231.090 M215.462 241.200 C 215.716 241.530,216.006 242.250,216.107 242.800 L 216.291 243.800 216.346 242.749 C 216.376 242.170,216.086 241.452,215.700 241.149 C 215.091 240.671,215.060 240.678,215.462 241.200 M175.709 246.800 C 175.709 247.790,175.787 248.195,175.882 247.700 C 175.978 247.205,175.978 246.395,175.882 245.900 C 175.787 245.405,175.709 245.810,175.709 246.800 M232.668 246.600 C 232.971 248.577,233.202 248.914,233.194 247.367 C 233.191 246.725,233.016 245.930,232.805 245.600 C 232.545 245.191,232.501 245.510,232.668 246.600 M123.131 245.912 C 123.521 246.186,123.627 247.199,123.531 249.725 C 123.459 251.616,123.543 253.020,123.717 252.845 C 124.322 252.236,123.862 245.881,123.200 245.702 C 122.725 245.573,122.711 245.617,123.131 245.912 M229.375 246.900 L 228.200 248.200 229.500 247.025 C 230.215 246.379,230.800 245.794,230.800 245.725 C 230.800 245.416,230.470 245.688,229.375 246.900 M276.886 249.468 C 276.975 252.498,277.130 253.370,277.600 253.498 C 278.074 253.627,278.089 253.583,277.670 253.288 C 277.279 253.013,277.174 251.960,277.270 249.257 C 277.342 247.245,277.258 245.599,277.086 245.599 C 276.913 245.600,276.823 247.340,276.886 249.468 M225.978 247.900 L 224.600 249.400 226.100 248.022 C 227.496 246.738,227.784 246.400,227.478 246.400 C 227.412 246.400,226.737 247.075,225.978 247.900 M251.762 248.500 L 251.000 249.400 251.887 248.650 C 252.407 248.210,253.110 247.988,253.587 248.113 C 254.035 248.230,254.300 248.162,254.177 247.963 C 253.772 247.308,252.539 247.583,251.762 248.500 M197.385 250.500 L 195.400 252.600 197.500 250.615 C 198.655 249.523,199.600 248.578,199.600 248.515 C 199.600 248.217,199.229 248.549,197.385 250.500 M175.300 251.476 C 175.685 251.576,176.315 251.576,176.700 251.476 C 177.085 251.375,176.770 251.293,176.000 251.293 C 175.230 251.293,174.915 251.375,175.300 251.476 M197.791 252.890 L 196.200 254.600 197.809 253.108 C 199.356 251.673,199.436 251.646,199.912 252.408 C 200.187 252.848,200.805 253.179,201.303 253.154 C 202.115 253.112,202.124 253.089,201.400 252.918 C 200.960 252.813,200.326 252.380,199.991 251.954 C 199.403 251.207,199.327 251.239,197.791 252.890 M185.600 253.660 C 184.830 254.335,184.562 254.705,185.004 254.481 C 185.735 254.111,187.547 252.378,187.162 252.416 C 187.073 252.425,186.370 252.985,185.600 253.660 M169.200 253.648 C 168.430 254.061,168.095 254.399,168.456 254.399 C 168.816 254.400,169.536 254.046,170.056 253.613 C 171.200 252.660,171.031 252.667,169.200 253.648 M218.991 262.900 L 215.800 266.200 219.100 263.009 C 222.165 260.046,222.582 259.600,222.291 259.600 C 222.230 259.600,220.745 261.085,218.991 262.900 M222.575 262.500 L 221.400 263.800 222.700 262.625 C 223.415 261.979,224.000 261.394,224.000 261.325 C 224.000 261.016,223.670 261.288,222.575 262.500 M217.781 272.900 L 216.200 274.600 217.900 273.019 C 219.481 271.548,219.784 271.200,219.481 271.200 C 219.416 271.200,218.651 271.965,217.781 272.900 " stroke="none" fill="#576255" fill-rule="evenodd"></path><path id="path3" d="M184.918 154.698 C 186.633 154.773,189.333 154.772,190.918 154.697 C 192.503 154.621,191.100 154.559,187.800 154.560 C 184.500 154.561,183.203 154.622,184.918 154.698 M209.729 157.081 C 210.172 157.196,210.370 157.500,210.234 157.856 C 210.108 158.184,210.183 158.334,210.405 158.197 C 211.163 157.729,210.816 156.799,209.900 156.846 C 209.178 156.884,209.144 156.930,209.729 157.081 M213.461 157.500 C 213.358 157.665,214.472 157.750,215.937 157.690 C 220.577 157.497,221.121 157.330,217.324 157.264 C 215.302 157.229,213.563 157.335,213.461 157.500 M201.503 162.900 C 200.985 163.395,200.840 163.600,201.180 163.356 C 201.521 163.112,202.160 162.712,202.600 162.468 C 203.040 162.224,203.185 162.019,202.922 162.012 C 202.660 162.005,202.021 162.405,201.503 162.900 M202.639 164.738 C 202.500 164.961,202.582 165.265,202.820 165.412 C 203.435 165.793,203.832 165.272,203.318 164.758 C 203.031 164.471,202.807 164.464,202.639 164.738 M188.594 166.819 C 188.632 167.333,188.874 167.825,189.131 167.910 C 189.756 168.119,189.725 167.523,189.063 166.618 C 188.558 165.928,188.529 165.940,188.594 166.819 M204.100 172.276 C 204.485 172.376,205.115 172.376,205.500 172.276 C 205.885 172.175,205.570 172.093,204.800 172.093 C 204.030 172.093,203.715 172.175,204.100 172.276 M199.400 174.800 C 199.059 175.460,198.869 176.000,198.979 176.000 C 199.089 176.000,199.459 175.460,199.800 174.800 C 200.141 174.140,200.331 173.600,200.221 173.600 C 200.111 173.600,199.741 174.140,199.400 174.800 M208.368 175.500 C 206.009 178.143,205.474 178.800,205.682 178.800 C 205.803 178.800,206.749 177.810,207.782 176.600 C 209.696 174.360,210.155 173.498,208.368 175.500 M172.691 200.689 C 173.401 200.777,174.661 200.779,175.491 200.692 C 176.321 200.605,175.740 200.533,174.200 200.531 C 172.660 200.529,171.981 200.600,172.691 200.689 M178.400 201.133 C 178.730 201.336,179.450 201.624,180.000 201.771 C 180.695 201.957,180.817 201.925,180.400 201.667 C 180.070 201.464,179.350 201.176,178.800 201.029 C 178.105 200.843,177.983 200.875,178.400 201.133 M114.184 201.497 L 125.568 201.612 125.708 204.706 L 125.848 207.800 125.824 204.600 L 125.800 201.400 114.300 201.391 L 102.800 201.381 114.184 201.497 M136.999 201.492 L 140.800 201.629 140.800 205.991 C 140.800 210.050,141.138 211.472,141.834 210.345 C 142.012 210.057,141.950 209.983,141.675 210.154 C 141.356 210.351,141.194 209.126,141.113 205.915 L 141.000 201.400 137.099 201.377 L 133.198 201.354 136.999 201.492 M148.162 202.100 C 147.401 202.999,147.401 202.999,148.231 202.300 C 148.916 201.724,149.862 201.600,153.580 201.600 C 157.825 201.600,158.065 201.642,157.549 202.300 C 157.051 202.934,157.066 202.949,157.700 202.451 C 159.035 201.404,158.376 201.200,153.662 201.200 C 149.241 201.200,148.873 201.260,148.162 202.100 M197.113 201.495 C 198.276 201.576,200.076 201.576,201.113 201.493 C 202.151 201.411,201.200 201.345,199.000 201.346 C 196.800 201.347,195.951 201.414,197.113 201.495 M216.594 201.491 L 220.390 201.629 220.503 215.714 L 220.616 229.800 220.608 215.600 L 220.600 201.400 216.699 201.377 L 212.798 201.354 216.594 201.491 M227.270 203.094 L 227.340 205.000 227.493 203.300 L 227.646 201.600 238.807 201.600 L 249.968 201.600 250.108 204.700 L 250.248 207.800 250.224 204.600 L 250.200 201.400 238.700 201.294 L 227.200 201.188 227.270 203.094 M257.467 201.467 C 257.097 201.837,257.129 229.509,257.500 229.738 C 257.665 229.841,257.751 223.551,257.690 215.762 L 257.580 201.600 261.310 201.600 C 263.728 201.600,265.237 201.776,265.601 202.100 C 266.078 202.525,266.082 202.496,265.632 201.900 C 265.091 201.185,258.118 200.815,257.467 201.467 M274.974 201.724 C 274.863 202.013,274.830 204.308,274.901 206.824 L 275.029 211.400 275.114 206.514 L 275.200 201.629 279.100 201.498 L 283.000 201.367 279.087 201.284 C 276.168 201.221,275.124 201.333,274.974 201.724 M293.794 201.491 L 297.590 201.629 297.703 215.714 L 297.815 229.800 297.808 215.600 L 297.800 201.400 293.899 201.377 L 289.998 201.354 293.794 201.491 M163.951 204.431 L 162.200 206.062 164.100 204.546 C 165.145 203.713,166.000 202.979,166.000 202.915 C 166.000 202.607,165.563 202.930,163.951 204.431 M155.375 204.900 L 154.200 206.200 155.500 205.025 C 156.215 204.379,156.800 203.794,156.800 203.725 C 156.800 203.416,156.470 203.688,155.375 204.900 M151.564 209.300 C 150.179 210.895,148.596 212.695,148.048 213.300 C 147.499 213.905,147.155 214.400,147.284 214.400 C 147.412 214.400,149.075 212.600,150.980 210.400 C 152.885 208.200,154.363 206.400,154.263 206.400 C 154.164 206.400,152.949 207.705,151.564 209.300 M173.700 207.876 C 174.085 207.976,174.715 207.976,175.100 207.876 C 175.485 207.775,175.170 207.693,174.400 207.693 C 173.630 207.693,173.315 207.775,173.700 207.876 M234.561 208.558 C 234.443 208.865,234.404 209.810,234.473 210.658 L 234.600 212.200 241.800 212.214 L 249.000 212.227 241.862 212.104 L 234.724 211.982 234.862 209.991 C 235.004 207.938,234.931 207.592,234.561 208.558 M168.975 210.100 L 167.800 211.400 169.100 210.225 C 170.312 209.130,170.584 208.800,170.275 208.800 C 170.206 208.800,169.621 209.385,168.975 210.100 M117.600 212.295 L 124.800 212.418 124.800 215.600 L 124.800 218.782 117.500 218.905 L 110.200 219.029 117.600 219.014 L 125.000 219.000 125.000 215.600 L 125.000 212.200 117.700 212.186 L 110.399 212.172 117.600 212.295 M189.293 213.600 C 189.293 214.370,189.375 214.685,189.476 214.300 C 189.576 213.915,189.576 213.285,189.476 212.900 C 189.375 212.515,189.293 212.830,189.293 213.600 M158.909 215.600 C 158.909 216.590,158.987 216.995,159.082 216.500 C 159.178 216.005,159.178 215.195,159.082 214.700 C 158.987 214.205,158.909 214.610,158.909 215.600 M181.709 215.600 C 181.709 216.590,181.787 216.995,181.882 216.500 C 181.978 216.005,181.978 215.195,181.882 214.700 C 181.787 214.205,181.709 214.610,181.709 215.600 M238.300 219.098 C 240.335 219.171,243.665 219.171,245.700 219.098 C 247.735 219.025,246.070 218.966,242.000 218.966 C 237.930 218.966,236.265 219.025,238.300 219.098 M234.509 221.200 C 234.509 222.190,234.587 222.595,234.682 222.100 C 234.778 221.605,234.778 220.795,234.682 220.300 C 234.587 219.805,234.509 220.210,234.509 221.200 M140.886 225.500 L 140.971 230.200 141.099 225.643 L 141.227 221.086 142.314 222.043 L 143.400 223.000 142.430 221.900 C 140.921 220.188,140.794 220.483,140.886 225.500 M168.767 221.345 C 169.300 222.001,170.800 222.993,170.800 222.689 C 170.800 222.613,170.215 222.122,169.500 221.599 C 168.696 221.010,168.416 220.913,168.767 221.345 M125.742 226.600 C 125.741 228.580,125.808 229.440,125.892 228.512 C 125.976 227.584,125.977 225.964,125.895 224.912 C 125.812 223.860,125.743 224.620,125.742 226.600 M250.142 226.600 C 250.141 228.580,250.208 229.440,250.292 228.512 C 250.376 227.584,250.377 225.964,250.295 224.912 C 250.212 223.860,250.143 224.620,250.142 226.600 M184.975 226.500 L 183.800 227.800 185.100 226.625 C 186.312 225.530,186.584 225.200,186.275 225.200 C 186.206 225.200,185.621 225.785,184.975 226.500 M147.634 228.647 C 148.165 229.333,148.680 229.823,148.779 229.735 C 148.877 229.647,148.443 229.086,147.813 228.488 L 146.669 227.400 147.634 228.647 M157.081 234.621 C 156.266 236.267,155.609 237.745,155.620 237.907 C 155.631 238.068,156.362 236.786,157.246 235.059 C 158.129 233.331,158.786 231.853,158.706 231.773 C 158.627 231.693,157.895 232.975,157.081 234.621 M158.672 236.219 C 157.732 238.189,157.864 238.524,158.847 236.662 C 159.293 235.816,159.587 235.054,159.501 234.967 C 159.414 234.881,159.041 235.444,158.672 236.219 M156.272 241.419 C 155.332 243.389,155.464 243.724,156.447 241.862 C 156.893 241.016,157.187 240.254,157.101 240.167 C 157.014 240.081,156.641 240.644,156.272 241.419 M246.657 243.600 C 246.908 243.930,247.202 244.560,247.311 245.000 C 247.497 245.760,247.510 245.757,247.554 244.949 C 247.579 244.481,247.285 243.851,246.900 243.549 C 246.291 243.072,246.260 243.078,246.657 243.600 M172.200 244.000 C 172.064 244.220,171.631 244.400,171.238 244.400 C 170.845 244.400,170.181 244.805,169.762 245.300 C 169.001 246.199,169.001 246.199,169.831 245.500 C 170.289 245.115,170.919 244.794,171.231 244.787 C 171.909 244.772,173.556 243.600,172.900 243.600 C 172.651 243.600,172.336 243.780,172.200 244.000 M212.162 244.500 L 211.400 245.400 212.259 244.676 C 212.921 244.116,213.165 244.071,213.327 244.476 C 213.464 244.818,213.548 244.757,213.568 244.300 C 213.612 243.345,213.075 243.421,212.162 244.500 M230.100 245.076 C 231.092 245.335,231.007 245.549,229.100 247.585 L 227.400 249.400 229.300 247.617 C 231.374 245.670,231.697 244.774,230.300 244.846 C 229.623 244.881,229.573 244.938,230.100 245.076 M206.175 247.300 L 205.000 248.600 206.300 247.425 C 207.512 246.330,207.784 246.000,207.475 246.000 C 207.406 246.000,206.821 246.585,206.175 247.300 M225.775 247.700 L 224.600 249.000 225.900 247.825 C 226.615 247.179,227.200 246.594,227.200 246.525 C 227.200 246.216,226.870 246.488,225.775 247.700 M174.046 247.480 C 174.021 247.964,173.685 248.544,173.300 248.768 C 172.915 248.992,172.803 249.181,173.051 249.188 C 173.763 249.207,174.484 248.109,174.279 247.319 C 174.130 246.743,174.084 246.774,174.046 247.480 M175.328 248.595 C 175.375 249.062,175.738 249.425,176.205 249.472 C 176.781 249.532,176.814 249.499,176.325 249.352 C 175.953 249.242,175.558 248.847,175.448 248.475 C 175.301 247.986,175.268 248.019,175.328 248.595 M168.981 250.037 C 168.629 250.718,168.412 251.345,168.499 251.432 C 168.586 251.519,168.956 250.962,169.322 250.195 C 170.144 248.470,169.859 248.338,168.981 250.037 M197.978 250.300 L 196.600 251.800 198.100 250.422 C 199.496 249.138,199.784 248.800,199.478 248.800 C 199.412 248.800,198.737 249.475,197.978 250.300 M188.571 250.091 L 187.800 251.000 188.700 250.238 L 189.600 249.476 189.670 251.438 L 189.740 253.400 189.896 251.646 C 190.089 249.467,189.593 248.884,188.571 250.091 M149.665 251.017 C 148.995 252.488,149.123 252.802,149.847 251.465 C 150.186 250.840,150.388 250.254,150.296 250.163 C 150.205 250.071,149.921 250.456,149.665 251.017 M172.257 250.606 C 172.417 251.020,172.019 251.782,171.153 252.726 L 169.800 254.200 171.300 252.822 C 172.808 251.436,173.137 250.656,172.405 250.203 C 172.174 250.061,172.113 250.229,172.257 250.606 M197.385 252.900 L 195.400 255.000 197.424 253.090 C 198.537 252.040,199.572 251.305,199.724 251.457 C 199.876 251.609,200.000 251.523,200.000 251.267 C 200.000 250.402,199.380 250.790,197.385 252.900 M186.378 252.700 L 185.000 254.200 186.500 252.822 C 187.896 251.538,188.184 251.200,187.878 251.200 C 187.812 251.200,187.137 251.875,186.378 252.700 M238.493 252.400 C 238.493 253.170,238.575 253.485,238.676 253.100 C 238.776 252.715,238.776 252.085,238.676 251.700 C 238.575 251.315,238.493 251.630,238.493 252.400 M182.046 252.513 C 181.981 253.521,183.001 253.785,184.070 253.036 C 184.570 252.686,184.769 252.400,184.513 252.400 C 184.257 252.400,183.936 252.580,183.800 252.800 C 183.402 253.443,182.474 253.261,182.276 252.500 C 182.104 251.844,182.090 251.845,182.046 252.513 M166.006 253.233 C 166.009 253.765,166.189 254.470,166.406 254.800 C 166.682 255.222,166.723 254.985,166.542 254.000 C 166.225 252.275,165.998 251.949,166.006 253.233 M161.400 253.835 L 160.200 254.866 161.500 254.006 C 162.215 253.533,162.800 253.068,162.800 252.973 C 162.800 252.673,162.631 252.778,161.400 253.835 M183.400 254.614 C 182.740 254.917,182.481 255.172,182.824 255.182 C 183.166 255.192,183.796 254.936,184.224 254.613 C 185.172 253.896,184.969 253.896,183.400 254.614 M212.360 254.520 C 212.546 254.706,213.306 254.796,214.049 254.719 C 215.367 254.583,215.358 254.575,213.710 254.380 C 212.781 254.271,212.173 254.333,212.360 254.520 M149.897 259.634 C 149.510 259.859,149.015 259.933,148.797 259.798 C 148.579 259.663,148.400 259.743,148.400 259.976 C 148.400 260.582,149.316 260.499,150.224 259.813 C 151.118 259.136,150.929 259.033,149.897 259.634 M220.388 264.300 L 217.800 267.000 220.500 264.412 C 221.985 262.988,223.200 261.773,223.200 261.712 C 223.200 261.417,222.793 261.792,220.388 264.300 M224.278 263.405 C 223.912 264.172,223.695 264.800,223.796 264.800 C 224.070 264.800,225.284 262.351,225.101 262.168 C 225.014 262.081,224.644 262.638,224.278 263.405 M217.978 273.100 L 216.600 274.600 218.100 273.222 C 219.496 271.938,219.784 271.600,219.478 271.600 C 219.412 271.600,218.737 272.275,217.978 273.100 M219.381 274.100 L 217.800 275.800 219.500 274.219 C 220.435 273.349,221.200 272.584,221.200 272.519 C 221.200 272.216,220.852 272.519,219.381 274.100 " stroke="none" fill="#848484" fill-rule="evenodd"></path></g></svg>